G75*
%MOIN*%
%OFA0B0*%
%FSLAX24Y24*%
%IPPOS*%
%LPD*%
%AMOC8*
5,1,8,0,0,1.08239X$1,22.5*
%
%ADD10R,0.0552X0.0316*%
%ADD11OC8,0.0820*%
%ADD12C,0.0820*%
%ADD13C,0.0780*%
%ADD14R,0.0474X0.0513*%
%ADD15R,0.0730X0.0730*%
%ADD16C,0.0730*%
%ADD17C,0.0580*%
%ADD18OC8,0.0930*%
%ADD19C,0.2245*%
D10*
X018298Y005008D03*
X018298Y005508D03*
X018298Y006008D03*
X018298Y006508D03*
X018298Y007008D03*
X018298Y007508D03*
X018298Y008008D03*
X018298Y008508D03*
X020502Y008508D03*
X020502Y008008D03*
X020502Y007508D03*
X020502Y007008D03*
X020502Y006508D03*
X020502Y006008D03*
X020502Y005508D03*
X020502Y005008D03*
X026098Y005008D03*
X026098Y005508D03*
X026098Y006008D03*
X026098Y006508D03*
X026098Y007008D03*
X026098Y007508D03*
X026098Y008008D03*
X026098Y008508D03*
X028302Y008508D03*
X028302Y008008D03*
X028302Y007508D03*
X028302Y007008D03*
X028302Y006508D03*
X028302Y006008D03*
X028302Y005508D03*
X028302Y005008D03*
X034048Y005008D03*
X034048Y005508D03*
X034048Y006008D03*
X034048Y006508D03*
X034048Y007008D03*
X034048Y007508D03*
X034048Y008008D03*
X034048Y008508D03*
X036252Y008508D03*
X036252Y008008D03*
X036252Y007508D03*
X036252Y007008D03*
X036252Y006508D03*
X036252Y006008D03*
X036252Y005508D03*
X036252Y005008D03*
X036102Y015308D03*
X036102Y015808D03*
X036102Y016308D03*
X036102Y016808D03*
X036102Y017308D03*
X036102Y017808D03*
X036102Y018308D03*
X036102Y018808D03*
X033898Y018808D03*
X033898Y018308D03*
X033898Y017808D03*
X033898Y017308D03*
X033898Y016808D03*
X033898Y016308D03*
X033898Y015808D03*
X033898Y015308D03*
X028302Y015308D03*
X028302Y015808D03*
X028302Y016308D03*
X028302Y016808D03*
X028302Y017308D03*
X028302Y017808D03*
X028302Y018308D03*
X028302Y018808D03*
X026098Y018808D03*
X026098Y018308D03*
X026098Y017808D03*
X026098Y017308D03*
X026098Y016808D03*
X026098Y016308D03*
X026098Y015808D03*
X026098Y015308D03*
X020502Y015308D03*
X020502Y015808D03*
X020502Y016308D03*
X020502Y016808D03*
X020502Y017308D03*
X020502Y017808D03*
X020502Y018308D03*
X020502Y018808D03*
X018298Y018808D03*
X018298Y018308D03*
X018298Y017808D03*
X018298Y017308D03*
X018298Y016808D03*
X018298Y016308D03*
X018298Y015808D03*
X018298Y015308D03*
D11*
X022400Y015558D03*
X023500Y015558D03*
X023500Y016558D03*
X022400Y016558D03*
X022400Y017558D03*
X023500Y017558D03*
X023500Y018558D03*
X022400Y018558D03*
X022400Y019558D03*
X023500Y019558D03*
X030150Y019558D03*
X031250Y019558D03*
X031250Y018558D03*
X030150Y018558D03*
X030150Y017558D03*
X031250Y017558D03*
X031250Y016558D03*
X030150Y016558D03*
X030150Y015558D03*
X031250Y015558D03*
X031250Y014558D03*
X030150Y014558D03*
X030150Y013558D03*
X031250Y013558D03*
X038025Y013558D03*
X039125Y013558D03*
X039125Y014558D03*
X038025Y014558D03*
X038025Y015558D03*
X039125Y015558D03*
X039125Y016558D03*
X038025Y016558D03*
X038025Y017558D03*
X039125Y017558D03*
X039125Y018558D03*
X038025Y018558D03*
X038025Y019558D03*
X039125Y019558D03*
X041900Y017558D03*
X043000Y017558D03*
X043000Y016558D03*
X041900Y016558D03*
X041900Y015558D03*
X043000Y015558D03*
X043000Y014558D03*
X041900Y014558D03*
X041900Y013558D03*
X043000Y013558D03*
X043000Y009233D03*
X041900Y009233D03*
X041900Y008233D03*
X043000Y008233D03*
X043000Y007233D03*
X041900Y007233D03*
X041900Y006233D03*
X043000Y006233D03*
X043000Y005233D03*
X041900Y005233D03*
X039125Y005233D03*
X038025Y005233D03*
X038025Y006233D03*
X039125Y006233D03*
X039125Y007233D03*
X038025Y007233D03*
X038025Y008233D03*
X039125Y008233D03*
X039125Y009233D03*
X038025Y009233D03*
X031250Y009258D03*
X030150Y009258D03*
X030150Y008258D03*
X031250Y008258D03*
X031250Y007258D03*
X030150Y007258D03*
X030150Y006258D03*
X031250Y006258D03*
X031250Y005258D03*
X030150Y005258D03*
X030150Y004258D03*
X031250Y004258D03*
X031250Y003258D03*
X030150Y003258D03*
X023500Y003258D03*
X022400Y003258D03*
X022400Y004258D03*
X023500Y004258D03*
X023500Y005258D03*
X022400Y005258D03*
X022400Y006258D03*
X023500Y006258D03*
X023500Y007258D03*
X022400Y007258D03*
X022400Y008258D03*
X023500Y008258D03*
X023500Y009258D03*
X022400Y009258D03*
X022400Y013558D03*
X023500Y013558D03*
X023500Y014558D03*
X022400Y014558D03*
X038025Y004233D03*
X039125Y004233D03*
X039125Y003233D03*
X038025Y003233D03*
D12*
X001225Y005533D03*
X002225Y005533D03*
X003600Y005533D03*
X004600Y005533D03*
X005975Y005558D03*
X006975Y005558D03*
X008350Y005558D03*
X009350Y005558D03*
X010725Y005558D03*
X011725Y005558D03*
X013100Y005558D03*
X014100Y005558D03*
X014100Y007908D03*
X013100Y007908D03*
X011725Y007908D03*
X010725Y007908D03*
X009350Y007908D03*
X008350Y007908D03*
X006975Y007908D03*
X005975Y007908D03*
X004600Y007908D03*
X003600Y007908D03*
X002225Y007908D03*
X001225Y007908D03*
X001225Y010283D03*
X002225Y010283D03*
X003600Y010283D03*
X004600Y010283D03*
X005975Y010283D03*
X006975Y010283D03*
X008350Y010283D03*
X009350Y010283D03*
X010725Y010283D03*
X011725Y010283D03*
X013100Y010283D03*
X014100Y010283D03*
X016200Y011508D03*
X017200Y011508D03*
X018900Y010108D03*
X019900Y010108D03*
X014100Y012658D03*
X013100Y012658D03*
X011725Y012658D03*
X010725Y012658D03*
X009350Y012658D03*
X008350Y012658D03*
X006975Y012658D03*
X005975Y012658D03*
X004600Y012658D03*
X003600Y012658D03*
X002225Y012658D03*
X001225Y012658D03*
X001225Y015033D03*
X002225Y015033D03*
X003600Y015033D03*
X004600Y015033D03*
X005975Y015033D03*
X006975Y015033D03*
X008350Y015033D03*
X009350Y015033D03*
X010725Y015033D03*
X011725Y015033D03*
X013100Y015033D03*
X014100Y015033D03*
X014100Y017408D03*
X013100Y017408D03*
X011725Y017408D03*
X010725Y017408D03*
X009350Y017408D03*
X008350Y017408D03*
X006975Y017408D03*
X005975Y017408D03*
X004600Y017408D03*
X003600Y017408D03*
X002225Y017408D03*
X001225Y017408D03*
X018900Y020433D03*
X019900Y020433D03*
X026700Y020483D03*
X027700Y020483D03*
X034650Y020483D03*
X035650Y020483D03*
X035650Y013833D03*
X034650Y013833D03*
X027700Y013833D03*
X026700Y013833D03*
X019900Y013833D03*
X018900Y013833D03*
X026700Y010108D03*
X027700Y010108D03*
X034650Y010108D03*
X035650Y010108D03*
X035650Y003558D03*
X034650Y003558D03*
X027700Y003558D03*
X026700Y003558D03*
X019900Y003533D03*
X018900Y003533D03*
D13*
X033350Y013058D03*
X033350Y014058D03*
D14*
X034775Y012567D03*
X034775Y011898D03*
X028500Y012873D03*
X028500Y013542D03*
X020650Y013273D03*
X020650Y013942D03*
X020700Y003742D03*
X020700Y003073D03*
X028400Y003192D03*
X028400Y002523D03*
X036250Y002442D03*
X036250Y001773D03*
D15*
X034225Y002008D03*
D16*
X033225Y002008D03*
D17*
X033300Y004558D03*
X041150Y000708D03*
X043700Y000658D03*
X034050Y009008D03*
X032900Y009508D03*
X026100Y009108D03*
X018300Y009108D03*
X026100Y019408D03*
X033900Y019408D03*
X043750Y020158D03*
D18*
X036150Y011408D03*
X016850Y015858D03*
D19*
X015650Y021333D03*
X042400Y021333D03*
X042400Y001758D03*
X015650Y001758D03*
M02*
