G75*
%MOIN*%
%OFA0B0*%
%FSLAX24Y24*%
%IPPOS*%
%LPD*%
%AMOC8*
5,1,8,0,0,1.08239X$1,22.5*
%
%ADD10C,0.0000*%
%ADD11C,0.0040*%
%ADD12R,0.5750X0.2750*%
%ADD13C,0.0050*%
%ADD14C,0.0150*%
%ADD15C,0.0059*%
%ADD16R,0.0150X0.0300*%
D10*
X000650Y003208D02*
X013450Y003208D01*
X013494Y003206D01*
X013537Y003200D01*
X013579Y003191D01*
X013621Y003178D01*
X013661Y003161D01*
X013700Y003141D01*
X013737Y003118D01*
X013771Y003091D01*
X013804Y003062D01*
X013833Y003029D01*
X013860Y002995D01*
X013883Y002958D01*
X013903Y002919D01*
X013920Y002879D01*
X013933Y002837D01*
X013942Y002795D01*
X013948Y002752D01*
X013950Y002708D01*
X013950Y000608D01*
X013952Y000564D01*
X013958Y000521D01*
X013967Y000479D01*
X013980Y000437D01*
X013997Y000397D01*
X014017Y000358D01*
X014040Y000321D01*
X014067Y000287D01*
X014096Y000254D01*
X014129Y000225D01*
X014163Y000198D01*
X014200Y000175D01*
X014239Y000155D01*
X014279Y000138D01*
X014321Y000125D01*
X014363Y000116D01*
X014406Y000110D01*
X014450Y000108D01*
X043950Y000108D01*
X043994Y000110D01*
X044037Y000116D01*
X044079Y000125D01*
X044121Y000138D01*
X044161Y000155D01*
X044200Y000175D01*
X044237Y000198D01*
X044271Y000225D01*
X044304Y000254D01*
X044333Y000287D01*
X044360Y000321D01*
X044383Y000358D01*
X044403Y000397D01*
X044420Y000437D01*
X044433Y000479D01*
X044442Y000521D01*
X044448Y000564D01*
X044450Y000608D01*
X044450Y022483D01*
X044448Y022527D01*
X044442Y022570D01*
X044433Y022612D01*
X044420Y022654D01*
X044403Y022694D01*
X044383Y022733D01*
X044360Y022770D01*
X044333Y022804D01*
X044304Y022837D01*
X044271Y022866D01*
X044237Y022893D01*
X044200Y022916D01*
X044161Y022936D01*
X044121Y022953D01*
X044079Y022966D01*
X044037Y022975D01*
X043994Y022981D01*
X043950Y022983D01*
X014450Y022983D01*
X014406Y022981D01*
X014363Y022975D01*
X014321Y022966D01*
X014279Y022953D01*
X014239Y022936D01*
X014200Y022916D01*
X014163Y022893D01*
X014129Y022866D01*
X014096Y022837D01*
X014067Y022804D01*
X014040Y022770D01*
X014017Y022733D01*
X013997Y022694D01*
X013980Y022654D01*
X013967Y022612D01*
X013958Y022570D01*
X013952Y022527D01*
X013950Y022483D01*
X013950Y020253D01*
X013948Y020209D01*
X013942Y020166D01*
X013933Y020124D01*
X013920Y020082D01*
X013903Y020042D01*
X013883Y020003D01*
X013860Y019966D01*
X013833Y019932D01*
X013804Y019899D01*
X013771Y019870D01*
X013737Y019843D01*
X013700Y019820D01*
X013661Y019800D01*
X013621Y019783D01*
X013579Y019770D01*
X013537Y019761D01*
X013494Y019755D01*
X013450Y019753D01*
X000650Y019753D01*
X000606Y019751D01*
X000563Y019745D01*
X000521Y019736D01*
X000479Y019723D01*
X000439Y019706D01*
X000400Y019686D01*
X000363Y019663D01*
X000329Y019636D01*
X000296Y019607D01*
X000267Y019574D01*
X000240Y019540D01*
X000217Y019503D01*
X000197Y019464D01*
X000180Y019424D01*
X000167Y019382D01*
X000158Y019340D01*
X000152Y019297D01*
X000150Y019253D01*
X000150Y003708D01*
X000152Y003664D01*
X000158Y003621D01*
X000167Y003579D01*
X000180Y003537D01*
X000197Y003497D01*
X000217Y003458D01*
X000240Y003421D01*
X000267Y003387D01*
X000296Y003354D01*
X000329Y003325D01*
X000363Y003298D01*
X000400Y003275D01*
X000439Y003255D01*
X000479Y003238D01*
X000521Y003225D01*
X000563Y003216D01*
X000606Y003210D01*
X000650Y003208D01*
D11*
X000614Y004328D02*
X000434Y004328D01*
X000434Y004688D01*
X000434Y004568D02*
X000614Y004568D01*
X000674Y004508D01*
X000674Y004388D01*
X000614Y004328D01*
X000801Y004568D02*
X000861Y004568D01*
X000981Y004448D01*
X000981Y004328D02*
X000981Y004568D01*
X001109Y004508D02*
X001109Y004328D01*
X001289Y004328D01*
X001349Y004388D01*
X001289Y004448D01*
X001109Y004448D01*
X001109Y004508D02*
X001169Y004568D01*
X001289Y004568D01*
X001477Y004508D02*
X001477Y004388D01*
X001538Y004328D01*
X001658Y004328D01*
X001718Y004388D01*
X001718Y004508D01*
X001658Y004568D01*
X001538Y004568D01*
X001477Y004508D01*
X001846Y004568D02*
X001906Y004508D01*
X002086Y004508D01*
X002086Y004328D02*
X002086Y004688D01*
X001906Y004688D01*
X001846Y004628D01*
X001846Y004568D01*
X001906Y004508D02*
X001846Y004448D01*
X001846Y004388D01*
X001906Y004328D01*
X002086Y004328D01*
X002214Y004268D02*
X002454Y004268D01*
X002582Y004328D02*
X002823Y004568D01*
X002951Y004568D02*
X002951Y004328D01*
X003131Y004328D01*
X003191Y004388D01*
X003191Y004568D01*
X003319Y004688D02*
X003439Y004568D01*
X003559Y004688D01*
X003559Y004328D01*
X003319Y004328D02*
X003319Y004688D01*
X003687Y004688D02*
X003928Y004328D01*
X004056Y004328D02*
X004296Y004568D01*
X004424Y004508D02*
X004484Y004568D01*
X004604Y004568D01*
X004664Y004508D01*
X004664Y004388D01*
X004604Y004328D01*
X004484Y004328D01*
X004424Y004388D01*
X004424Y004508D01*
X004296Y004328D02*
X004056Y004568D01*
X004792Y004568D02*
X004852Y004508D01*
X005033Y004508D01*
X005159Y004568D02*
X005219Y004568D01*
X005339Y004448D01*
X005339Y004328D02*
X005339Y004568D01*
X005468Y004508D02*
X005468Y004448D01*
X005708Y004448D01*
X005708Y004508D02*
X005648Y004568D01*
X005528Y004568D01*
X005468Y004508D01*
X005528Y004328D02*
X005648Y004328D01*
X005708Y004388D01*
X005708Y004508D01*
X005836Y004568D02*
X006016Y004568D01*
X006076Y004508D01*
X006016Y004448D01*
X005896Y004448D01*
X005836Y004388D01*
X005896Y004328D01*
X006076Y004328D01*
X006204Y004328D02*
X006384Y004328D01*
X006444Y004388D01*
X006384Y004448D01*
X006204Y004448D01*
X006204Y004508D02*
X006204Y004328D01*
X006204Y004508D02*
X006264Y004568D01*
X006384Y004568D01*
X006572Y004328D02*
X006813Y004328D01*
X006813Y004688D01*
X006941Y004688D02*
X007181Y004328D01*
X007309Y004328D02*
X007549Y004568D01*
X007677Y004568D02*
X007858Y004568D01*
X007918Y004508D01*
X007918Y004388D01*
X007858Y004328D01*
X007677Y004328D01*
X007549Y004328D02*
X007309Y004568D01*
X008042Y004388D02*
X008042Y004328D01*
X008102Y004328D01*
X008102Y004388D01*
X008042Y004388D01*
X008230Y004328D02*
X008230Y004508D01*
X008290Y004568D01*
X008470Y004568D01*
X008470Y004328D01*
X008598Y004448D02*
X008838Y004448D01*
X008838Y004508D02*
X008778Y004568D01*
X008658Y004568D01*
X008598Y004508D01*
X008598Y004448D01*
X008658Y004328D02*
X008778Y004328D01*
X008838Y004388D01*
X008838Y004508D01*
X008967Y004568D02*
X009147Y004568D01*
X009207Y004508D01*
X009147Y004448D01*
X009027Y004448D01*
X008967Y004388D01*
X009027Y004328D01*
X009207Y004328D01*
X009331Y004328D02*
X009391Y004328D01*
X009391Y004388D01*
X009331Y004388D01*
X009331Y004328D01*
X009519Y004328D02*
X009519Y004508D01*
X009579Y004568D01*
X009699Y004568D01*
X009759Y004508D01*
X009887Y004568D02*
X010067Y004568D01*
X010128Y004508D01*
X010128Y004388D01*
X010067Y004328D01*
X009887Y004328D01*
X009759Y004328D02*
X009759Y004688D01*
X010313Y004688D02*
X010313Y004748D01*
X010313Y004568D02*
X010313Y004328D01*
X010373Y004328D02*
X010253Y004328D01*
X010313Y004568D02*
X010373Y004568D01*
X010500Y004568D02*
X010560Y004568D01*
X010680Y004448D01*
X010680Y004328D02*
X010680Y004568D01*
X010805Y004568D02*
X010926Y004568D01*
X010865Y004628D02*
X010865Y004388D01*
X010805Y004328D01*
X011054Y004388D02*
X011114Y004448D01*
X011234Y004448D01*
X011294Y004508D01*
X011234Y004568D01*
X011054Y004568D01*
X011054Y004388D02*
X011114Y004328D01*
X011294Y004328D01*
X011421Y004328D02*
X011601Y004448D01*
X011421Y004568D01*
X011601Y004688D02*
X011601Y004328D01*
X011729Y004328D02*
X011909Y004328D01*
X011969Y004388D01*
X011969Y004508D01*
X011909Y004568D01*
X011729Y004568D01*
X012097Y004508D02*
X012097Y004328D01*
X012277Y004328D01*
X012337Y004388D01*
X012277Y004448D01*
X012097Y004448D01*
X012097Y004508D02*
X012157Y004568D01*
X012277Y004568D01*
X012466Y004508D02*
X012466Y004328D01*
X012466Y004508D02*
X012526Y004568D01*
X012646Y004568D01*
X012706Y004508D01*
X012706Y004688D02*
X012706Y004328D01*
X013074Y004328D02*
X012834Y004688D01*
X013202Y004688D02*
X013442Y004328D01*
X013566Y004328D02*
X013627Y004328D01*
X013627Y004388D01*
X013566Y004388D01*
X013566Y004328D01*
X013566Y004508D02*
X013627Y004508D01*
X013627Y004568D01*
X013566Y004568D01*
X013566Y004508D01*
X013755Y004508D02*
X013755Y004388D01*
X013815Y004328D01*
X013995Y004328D01*
X013995Y004207D02*
X013995Y004568D01*
X013815Y004568D01*
X013755Y004508D01*
X014120Y004568D02*
X014240Y004568D01*
X014180Y004628D02*
X014180Y004388D01*
X014120Y004328D01*
X014366Y004328D02*
X014426Y004388D01*
X014426Y004628D01*
X014486Y004568D02*
X014366Y004568D01*
X014614Y004508D02*
X014614Y004328D01*
X014614Y004508D02*
X014674Y004568D01*
X014794Y004568D01*
X014854Y004508D01*
X014854Y004688D02*
X014854Y004328D01*
X005033Y004328D02*
X004852Y004328D01*
X004792Y004388D01*
X004792Y004448D01*
X004852Y004508D01*
X004792Y004568D02*
X004792Y004628D01*
X004852Y004688D01*
X005033Y004688D01*
X005033Y004328D01*
X002823Y004328D02*
X002582Y004568D01*
X030017Y001378D02*
X030162Y001378D01*
X030089Y001378D02*
X030089Y001813D01*
X030162Y001813D01*
X030309Y001595D02*
X030309Y001378D01*
X030527Y001378D01*
X030599Y001450D01*
X030527Y001523D01*
X030309Y001523D01*
X030309Y001595D02*
X030382Y001668D01*
X030527Y001668D01*
X030818Y001668D02*
X030818Y001378D01*
X030746Y001378D02*
X030891Y001378D01*
X031110Y001668D02*
X031255Y001523D01*
X031255Y001378D02*
X031255Y001668D01*
X031110Y001668D02*
X031038Y001668D01*
X030891Y001668D02*
X030818Y001668D01*
X030818Y001813D02*
X030818Y001886D01*
X031402Y001595D02*
X031475Y001668D01*
X031620Y001668D01*
X031693Y001595D01*
X031693Y001450D01*
X031620Y001378D01*
X031475Y001378D01*
X031402Y001523D02*
X031693Y001523D01*
X031840Y001523D02*
X031840Y001450D01*
X031912Y001378D01*
X032057Y001378D01*
X032130Y001450D01*
X032057Y001595D02*
X032130Y001668D01*
X032130Y001740D01*
X032057Y001813D01*
X031912Y001813D01*
X031840Y001740D01*
X031912Y001595D02*
X031840Y001523D01*
X031912Y001595D02*
X032057Y001595D01*
X031402Y001595D02*
X031402Y001523D01*
X038667Y002388D02*
X038667Y002628D01*
X038727Y002688D01*
X038847Y002688D01*
X038907Y002628D01*
X038907Y002388D01*
X038847Y002328D01*
X038727Y002328D01*
X038667Y002388D01*
X039035Y002688D02*
X039276Y002328D01*
X039401Y002328D02*
X039521Y002328D01*
X039461Y002328D02*
X039461Y002688D01*
X039521Y002688D02*
X039401Y002688D01*
X039734Y003078D02*
X039674Y003138D01*
X039674Y003378D01*
X039914Y003138D01*
X039854Y003078D01*
X039734Y003078D01*
X039914Y003138D02*
X039914Y003378D01*
X039854Y003438D01*
X039734Y003438D01*
X039674Y003378D01*
X039674Y004028D02*
X039914Y004028D01*
X039794Y004028D02*
X039794Y004388D01*
X039914Y004268D01*
X039914Y005028D02*
X039674Y005028D01*
X039674Y005268D02*
X039674Y005328D01*
X039734Y005388D01*
X039854Y005388D01*
X039914Y005328D01*
X039674Y005268D02*
X039914Y005028D01*
X039854Y006028D02*
X039914Y006088D01*
X039854Y006028D02*
X039734Y006028D01*
X039674Y006088D01*
X039674Y006148D01*
X039734Y006208D01*
X039794Y006208D01*
X039734Y006208D02*
X039674Y006268D01*
X039674Y006328D01*
X039734Y006388D01*
X039854Y006388D01*
X039914Y006328D01*
X039684Y007028D02*
X039684Y007388D01*
X039864Y007208D01*
X039624Y007208D01*
X039734Y008028D02*
X039674Y008088D01*
X039674Y008208D01*
X039734Y008268D01*
X039794Y008268D01*
X039914Y008208D01*
X039914Y008388D01*
X039674Y008388D01*
X039734Y008028D02*
X039854Y008028D01*
X039914Y008088D01*
X037230Y006642D02*
X037230Y006462D01*
X036870Y006462D01*
X036870Y006642D01*
X036930Y006702D01*
X037170Y006702D01*
X037230Y006642D01*
X037230Y006334D02*
X036870Y006334D01*
X037230Y006093D01*
X036870Y006093D01*
X036930Y005965D02*
X037050Y005965D01*
X037050Y005845D01*
X036930Y005725D02*
X036870Y005785D01*
X036870Y005905D01*
X036930Y005965D01*
X036930Y005725D02*
X037170Y005725D01*
X037230Y005785D01*
X037230Y005905D01*
X037170Y005965D01*
X039100Y009775D02*
X039100Y010015D01*
X039100Y010143D02*
X039160Y010264D01*
X039160Y010324D01*
X039100Y010384D01*
X038980Y010384D01*
X038920Y010324D01*
X038920Y010203D01*
X038980Y010143D01*
X039100Y010143D02*
X039280Y010143D01*
X039280Y010384D01*
X039280Y010512D02*
X039040Y010512D01*
X038920Y010632D01*
X039040Y010752D01*
X039280Y010752D01*
X039220Y009895D02*
X038980Y009895D01*
X038939Y021228D02*
X038721Y021228D01*
X038649Y021300D01*
X038721Y021373D01*
X038866Y021373D01*
X038939Y021445D01*
X038866Y021518D01*
X038649Y021518D01*
X038502Y021445D02*
X038429Y021518D01*
X038284Y021518D01*
X038211Y021445D01*
X038211Y021373D01*
X038502Y021373D01*
X038502Y021445D02*
X038502Y021300D01*
X038429Y021228D01*
X038284Y021228D01*
X038064Y021300D02*
X038064Y021445D01*
X037992Y021518D01*
X037774Y021518D01*
X037774Y021663D02*
X037774Y021228D01*
X037992Y021228D01*
X038064Y021300D01*
X037189Y021300D02*
X037117Y021228D01*
X036899Y021228D01*
X036899Y021518D01*
X036752Y021518D02*
X036534Y021518D01*
X036462Y021445D01*
X036462Y021228D01*
X036315Y021300D02*
X036315Y021445D01*
X036242Y021518D01*
X036024Y021518D01*
X036024Y021663D02*
X036024Y021228D01*
X036242Y021228D01*
X036315Y021300D01*
X035877Y021300D02*
X035877Y021445D01*
X035805Y021518D01*
X035660Y021518D01*
X035587Y021445D01*
X035587Y021373D01*
X035877Y021373D01*
X035877Y021300D02*
X035805Y021228D01*
X035660Y021228D01*
X035440Y021228D02*
X035440Y021518D01*
X035295Y021518D02*
X035222Y021518D01*
X035295Y021518D02*
X035440Y021373D01*
X035367Y021978D02*
X035222Y021978D01*
X035367Y021978D02*
X035440Y022050D01*
X035440Y022195D01*
X035367Y022268D01*
X035222Y022268D01*
X035150Y022195D01*
X035150Y022123D01*
X035440Y022123D01*
X035587Y022050D02*
X035660Y022123D01*
X035805Y022123D01*
X035877Y022195D01*
X035805Y022268D01*
X035587Y022268D01*
X035587Y022050D02*
X035660Y021978D01*
X035877Y021978D01*
X036462Y021978D02*
X036679Y021978D01*
X036752Y022050D01*
X036752Y022268D01*
X036899Y022195D02*
X036972Y022268D01*
X037189Y022268D01*
X037189Y022413D02*
X037189Y021978D01*
X036972Y021978D01*
X036899Y022050D01*
X036899Y022195D01*
X036462Y022268D02*
X036462Y021905D01*
X036534Y021832D01*
X036607Y021832D01*
X036752Y021518D02*
X036752Y021228D01*
X037189Y021300D02*
X037189Y021518D01*
X037774Y021978D02*
X037992Y021978D01*
X038064Y022050D01*
X038064Y022195D01*
X037992Y022268D01*
X037774Y022268D01*
X037774Y022413D02*
X037774Y021978D01*
X038211Y022123D02*
X038502Y022123D01*
X038502Y022195D02*
X038429Y022268D01*
X038284Y022268D01*
X038211Y022195D01*
X038211Y022123D01*
X038284Y021978D02*
X038429Y021978D01*
X038502Y022050D01*
X038502Y022195D01*
X038649Y022195D02*
X038649Y021978D01*
X038649Y022195D02*
X038721Y022268D01*
X038939Y022268D01*
X038939Y021978D01*
X039086Y021978D02*
X039304Y021978D01*
X039376Y022050D01*
X039376Y022195D01*
X039304Y022268D01*
X039086Y022268D01*
X039086Y021905D01*
X039159Y021832D01*
X039231Y021832D01*
X039523Y021978D02*
X039668Y021978D01*
X039595Y021978D02*
X039595Y022268D01*
X039668Y022268D01*
X039815Y022268D02*
X040033Y022268D01*
X040105Y022195D01*
X040033Y022123D01*
X039888Y022123D01*
X039815Y022050D01*
X039888Y021978D01*
X040105Y021978D01*
X040252Y022123D02*
X040543Y022123D01*
X040543Y022195D02*
X040470Y022268D01*
X040325Y022268D01*
X040252Y022195D01*
X040252Y022123D01*
X040325Y021978D02*
X040470Y021978D01*
X040543Y022050D01*
X040543Y022195D01*
X040690Y022050D02*
X040762Y021978D01*
X040980Y021978D01*
X040980Y022413D01*
X040762Y022413D01*
X040690Y022340D01*
X040690Y022050D01*
X040762Y021663D02*
X040690Y021590D01*
X040690Y021445D01*
X040762Y021373D01*
X040980Y021373D01*
X040835Y021373D02*
X040690Y021228D01*
X040543Y021300D02*
X040543Y021445D01*
X040470Y021518D01*
X040325Y021518D01*
X040252Y021445D01*
X040252Y021373D01*
X040543Y021373D01*
X040543Y021300D02*
X040470Y021228D01*
X040325Y021228D01*
X040105Y021228D02*
X039960Y021228D01*
X040033Y021228D02*
X040033Y021663D01*
X040105Y021663D01*
X039814Y021445D02*
X039741Y021518D01*
X039596Y021518D01*
X039523Y021445D01*
X039523Y021373D01*
X039814Y021373D01*
X039814Y021445D02*
X039814Y021300D01*
X039741Y021228D01*
X039596Y021228D01*
X039376Y021300D02*
X039304Y021373D01*
X039086Y021373D01*
X039086Y021445D02*
X039086Y021228D01*
X039304Y021228D01*
X039376Y021300D01*
X039304Y021518D02*
X039159Y021518D01*
X039086Y021445D01*
X039595Y022413D02*
X039595Y022486D01*
X040762Y021663D02*
X040980Y021663D01*
X040980Y021228D01*
X035003Y021978D02*
X035003Y022268D01*
X034785Y022268D01*
X034712Y022195D01*
X034712Y021978D01*
X034566Y021663D02*
X034638Y021590D01*
X034638Y021300D01*
X034566Y021228D01*
X034420Y021228D01*
X034348Y021300D01*
X034201Y021228D02*
X034201Y021518D01*
X034201Y021373D02*
X034056Y021518D01*
X033983Y021518D01*
X033836Y021445D02*
X033836Y021300D01*
X033764Y021228D01*
X033619Y021228D01*
X033546Y021373D02*
X033836Y021373D01*
X033836Y021445D02*
X033764Y021518D01*
X033619Y021518D01*
X033546Y021445D01*
X033546Y021373D01*
X033399Y021300D02*
X033326Y021373D01*
X033109Y021373D01*
X033109Y021445D02*
X033109Y021228D01*
X033326Y021228D01*
X033399Y021300D01*
X033326Y021518D02*
X033181Y021518D01*
X033109Y021445D01*
X032961Y021518D02*
X032816Y021518D01*
X032889Y021590D02*
X032889Y021300D01*
X032816Y021228D01*
X032670Y021228D02*
X032525Y021228D01*
X032597Y021228D02*
X032597Y021518D01*
X032670Y021518D01*
X032597Y021663D02*
X032597Y021736D01*
X032378Y021518D02*
X032233Y021228D01*
X032088Y021518D01*
X031941Y021445D02*
X031868Y021518D01*
X031723Y021518D01*
X031651Y021445D01*
X031651Y021373D01*
X031941Y021373D01*
X031941Y021445D02*
X031941Y021300D01*
X031868Y021228D01*
X031723Y021228D01*
X031066Y021300D02*
X031066Y021590D01*
X030994Y021663D01*
X030849Y021663D01*
X030776Y021590D01*
X030629Y021445D02*
X030629Y021300D01*
X030556Y021228D01*
X030411Y021228D01*
X030339Y021300D01*
X030339Y021445D01*
X030411Y021518D01*
X030556Y021518D01*
X030629Y021445D01*
X030776Y021300D02*
X030849Y021228D01*
X030994Y021228D01*
X031066Y021300D01*
X030191Y021228D02*
X030191Y021518D01*
X030119Y021518D01*
X030046Y021445D01*
X029974Y021518D01*
X029901Y021445D01*
X029901Y021228D01*
X030046Y021228D02*
X030046Y021445D01*
X029754Y021518D02*
X029754Y021228D01*
X029609Y021228D02*
X029609Y021445D01*
X029536Y021518D01*
X029464Y021445D01*
X029464Y021228D01*
X029317Y021300D02*
X029317Y021445D01*
X029244Y021518D01*
X029099Y021518D01*
X029026Y021445D01*
X029026Y021300D01*
X029099Y021228D01*
X029244Y021228D01*
X029317Y021300D01*
X029609Y021445D02*
X029682Y021518D01*
X029754Y021518D01*
X028879Y021518D02*
X028879Y021228D01*
X028879Y021518D02*
X028662Y021518D01*
X028589Y021445D01*
X028589Y021228D01*
X028442Y021228D02*
X028224Y021228D01*
X028152Y021300D01*
X028224Y021373D01*
X028369Y021373D01*
X028442Y021445D01*
X028369Y021518D01*
X028152Y021518D01*
X027567Y021518D02*
X027567Y021228D01*
X027567Y021445D02*
X027277Y021445D01*
X027277Y021518D02*
X027277Y021228D01*
X027057Y021300D02*
X026985Y021228D01*
X027057Y021300D02*
X027057Y021590D01*
X026985Y021518D02*
X027130Y021518D01*
X027277Y021518D02*
X027422Y021663D01*
X027567Y021518D01*
X026838Y021518D02*
X026693Y021518D01*
X026766Y021590D02*
X026766Y021300D01*
X026693Y021228D01*
X026547Y021228D02*
X026547Y021518D01*
X026547Y021373D02*
X026402Y021518D01*
X026329Y021518D01*
X026182Y021518D02*
X026110Y021518D01*
X026110Y021228D01*
X026182Y021228D02*
X026037Y021228D01*
X025891Y021228D02*
X025673Y021228D01*
X025600Y021300D01*
X025600Y021445D01*
X025673Y021518D01*
X025891Y021518D01*
X025891Y021663D02*
X025891Y021228D01*
X025453Y021300D02*
X025453Y021518D01*
X025453Y021300D02*
X025381Y021228D01*
X025163Y021228D01*
X025163Y021518D01*
X025016Y021518D02*
X024871Y021518D01*
X024943Y021590D02*
X024943Y021300D01*
X024871Y021228D01*
X024724Y021228D02*
X024579Y021228D01*
X024652Y021228D02*
X024652Y021518D01*
X024724Y021518D01*
X024652Y021663D02*
X024652Y021736D01*
X024433Y021445D02*
X024433Y021300D01*
X024360Y021228D01*
X024215Y021228D01*
X024142Y021300D01*
X024142Y021445D01*
X024215Y021518D01*
X024360Y021518D01*
X024433Y021445D01*
X023995Y021518D02*
X023995Y021228D01*
X023995Y021518D02*
X023778Y021518D01*
X023705Y021445D01*
X023705Y021228D01*
X023558Y021445D02*
X023268Y021445D01*
X023121Y021518D02*
X023121Y021590D01*
X023048Y021663D01*
X022903Y021663D01*
X022830Y021590D01*
X022903Y021445D02*
X022830Y021373D01*
X022830Y021300D01*
X022903Y021228D01*
X023048Y021228D01*
X023121Y021300D01*
X023048Y021445D02*
X022903Y021445D01*
X023048Y021445D02*
X023121Y021518D01*
X022683Y021445D02*
X022611Y021518D01*
X022466Y021518D01*
X022393Y021445D01*
X022393Y021228D01*
X022246Y021300D02*
X022173Y021373D01*
X021956Y021373D01*
X021956Y021445D02*
X021956Y021228D01*
X022173Y021228D01*
X022246Y021300D01*
X022173Y021518D02*
X022028Y021518D01*
X021956Y021445D01*
X021808Y021373D02*
X021663Y021518D01*
X021591Y021518D01*
X021444Y021445D02*
X021371Y021518D01*
X021226Y021518D01*
X021154Y021445D01*
X021154Y021373D01*
X021444Y021373D01*
X021444Y021445D02*
X021444Y021300D01*
X021371Y021228D01*
X021226Y021228D01*
X021007Y021228D02*
X021007Y021518D01*
X020861Y021663D01*
X020716Y021518D01*
X020716Y021228D01*
X020569Y021228D02*
X020424Y021228D01*
X020497Y021228D02*
X020497Y021663D01*
X020569Y021663D01*
X020716Y021445D02*
X021007Y021445D01*
X021808Y021518D02*
X021808Y021228D01*
X022683Y021228D02*
X022683Y021663D01*
X020278Y021518D02*
X020205Y021518D01*
X020205Y021228D01*
X020133Y021228D02*
X020278Y021228D01*
X019986Y021228D02*
X019986Y021663D01*
X020205Y021663D02*
X020205Y021736D01*
X019986Y021373D02*
X019768Y021518D01*
X019622Y021445D02*
X019622Y021300D01*
X019549Y021228D01*
X019404Y021228D01*
X019331Y021373D02*
X019622Y021373D01*
X019622Y021445D02*
X019549Y021518D01*
X019404Y021518D01*
X019331Y021445D01*
X019331Y021373D01*
X019768Y021228D02*
X019986Y021373D01*
X018747Y021300D02*
X018674Y021228D01*
X018529Y021228D01*
X018457Y021300D01*
X018457Y021373D01*
X018529Y021445D01*
X018602Y021445D01*
X018529Y021445D02*
X018457Y021518D01*
X018457Y021590D01*
X018529Y021663D01*
X018674Y021663D01*
X018747Y021590D01*
X018309Y021300D02*
X018237Y021300D01*
X018237Y021228D01*
X018309Y021228D01*
X018309Y021300D01*
X018091Y021300D02*
X017801Y021590D01*
X017801Y021300D01*
X017873Y021228D01*
X018018Y021228D01*
X018091Y021300D01*
X018091Y021590D01*
X018018Y021663D01*
X017873Y021663D01*
X017801Y021590D01*
X026110Y021663D02*
X026110Y021736D01*
X034348Y021590D02*
X034420Y021663D01*
X034566Y021663D01*
D12*
X026825Y001683D03*
D13*
X040079Y008033D02*
X040304Y008258D01*
X040379Y008183D02*
X040079Y008483D01*
X040379Y008483D02*
X040379Y008033D01*
X040539Y008033D02*
X040840Y008033D01*
X040840Y008483D01*
X041000Y008408D02*
X041075Y008483D01*
X041225Y008483D01*
X041300Y008408D01*
X041300Y008108D01*
X041225Y008033D01*
X041075Y008033D01*
X041000Y008108D01*
X040915Y007433D02*
X040915Y007208D01*
X040764Y007283D01*
X040689Y007283D01*
X040614Y007208D01*
X040614Y007058D01*
X040689Y006983D01*
X040840Y006983D01*
X040915Y007058D01*
X041075Y007208D02*
X041375Y007208D01*
X041225Y007358D02*
X041225Y007058D01*
X040915Y007433D02*
X040614Y007433D01*
X040454Y007433D02*
X040454Y007133D01*
X040304Y006983D01*
X040154Y007133D01*
X040154Y007433D01*
X040154Y006433D02*
X040154Y006133D01*
X040304Y005983D01*
X040454Y006133D01*
X040454Y006433D01*
X040614Y006433D02*
X040915Y006433D01*
X040915Y006208D01*
X040764Y006283D01*
X040689Y006283D01*
X040614Y006208D01*
X040614Y006058D01*
X040689Y005983D01*
X040840Y005983D01*
X040915Y006058D01*
X041075Y006208D02*
X041375Y006208D01*
X041225Y006358D02*
X041225Y006058D01*
X040915Y005433D02*
X040915Y005208D01*
X040764Y005283D01*
X040689Y005283D01*
X040614Y005208D01*
X040614Y005058D01*
X040689Y004983D01*
X040840Y004983D01*
X040915Y005058D01*
X041075Y005208D02*
X041375Y005208D01*
X041225Y005358D02*
X041225Y005058D01*
X040915Y005433D02*
X040614Y005433D01*
X040454Y005433D02*
X040454Y005133D01*
X040304Y004983D01*
X040154Y005133D01*
X040154Y005433D01*
X043585Y005433D02*
X043585Y004983D01*
X043885Y005433D01*
X043885Y004983D01*
X044042Y004983D02*
X044192Y004983D01*
X044117Y004983D02*
X044117Y005433D01*
X044192Y005433D02*
X044042Y005433D01*
X043950Y005683D02*
X043650Y005683D01*
X043575Y005758D01*
X043575Y005908D01*
X043650Y005983D01*
X043950Y005983D01*
X044025Y005908D01*
X044025Y005758D01*
X043950Y005683D01*
X044025Y006143D02*
X043650Y006143D01*
X043575Y006218D01*
X043575Y006368D01*
X043650Y006443D01*
X044025Y006443D01*
X044025Y006603D02*
X044025Y006904D01*
X044025Y006754D02*
X043575Y006754D01*
X043650Y007633D02*
X043575Y007708D01*
X043575Y007858D01*
X043650Y007933D01*
X043800Y007933D01*
X043800Y007783D01*
X043950Y007933D02*
X044025Y007858D01*
X044025Y007708D01*
X043950Y007633D01*
X043650Y007633D01*
X043575Y008093D02*
X044025Y008093D01*
X043575Y008393D01*
X044025Y008393D01*
X044025Y008553D02*
X044025Y008779D01*
X043950Y008854D01*
X043650Y008854D01*
X043575Y008779D01*
X043575Y008553D01*
X044025Y008553D01*
X041300Y008983D02*
X041000Y008983D01*
X040840Y008983D02*
X040840Y009283D01*
X040689Y009433D01*
X040539Y009283D01*
X040539Y008983D01*
X040539Y009208D02*
X040840Y009208D01*
X041300Y009433D02*
X041300Y008983D01*
X040379Y009433D02*
X040079Y009433D01*
X040229Y009433D02*
X040229Y008983D01*
X043650Y012983D02*
X043575Y013058D01*
X043575Y013208D01*
X043650Y013283D01*
X043950Y013283D01*
X044025Y013208D01*
X044025Y013058D01*
X043950Y012983D01*
X043650Y012983D01*
X043650Y013443D02*
X043575Y013518D01*
X043575Y013668D01*
X043650Y013743D01*
X044025Y013743D01*
X044025Y013903D02*
X044025Y014204D01*
X044025Y014054D02*
X043575Y014054D01*
X043650Y013443D02*
X044025Y013443D01*
X041350Y013558D02*
X041050Y013558D01*
X040890Y013558D02*
X040890Y013783D01*
X040589Y013783D01*
X040429Y013783D02*
X040429Y013483D01*
X040279Y013333D01*
X040129Y013483D01*
X040129Y013783D01*
X040589Y013558D02*
X040589Y013408D01*
X040664Y013333D01*
X040815Y013333D01*
X040890Y013408D01*
X040890Y013558D02*
X040739Y013633D01*
X040664Y013633D01*
X040589Y013558D01*
X041200Y013708D02*
X041200Y013408D01*
X040815Y014333D02*
X040890Y014408D01*
X040815Y014333D02*
X040664Y014333D01*
X040589Y014408D01*
X040589Y014558D01*
X040664Y014633D01*
X040739Y014633D01*
X040890Y014558D01*
X040890Y014783D01*
X040589Y014783D01*
X040429Y014783D02*
X040429Y014483D01*
X040279Y014333D01*
X040129Y014483D01*
X040129Y014783D01*
X040279Y015333D02*
X040129Y015483D01*
X040129Y015783D01*
X040429Y015783D02*
X040429Y015483D01*
X040279Y015333D01*
X040589Y015408D02*
X040589Y015558D01*
X040664Y015633D01*
X040739Y015633D01*
X040890Y015558D01*
X040890Y015783D01*
X040589Y015783D01*
X041050Y015558D02*
X041350Y015558D01*
X041200Y015708D02*
X041200Y015408D01*
X040890Y015408D02*
X040815Y015333D01*
X040664Y015333D01*
X040589Y015408D01*
X041200Y014708D02*
X041200Y014408D01*
X041350Y014558D02*
X041050Y014558D01*
X043575Y016008D02*
X043575Y016158D01*
X043650Y016233D01*
X043800Y016233D01*
X043800Y016083D01*
X043950Y016233D02*
X044025Y016158D01*
X044025Y016008D01*
X043950Y015933D01*
X043650Y015933D01*
X043575Y016008D01*
X043575Y016393D02*
X044025Y016393D01*
X043575Y016693D01*
X044025Y016693D01*
X044025Y016853D02*
X043575Y016853D01*
X043575Y017079D01*
X043650Y017154D01*
X043950Y017154D01*
X044025Y017079D01*
X044025Y016853D01*
X041275Y016758D02*
X041275Y016458D01*
X041200Y016383D01*
X041050Y016383D01*
X040975Y016458D01*
X040815Y016383D02*
X040514Y016383D01*
X040354Y016383D02*
X040354Y016833D01*
X040279Y016608D02*
X040054Y016383D01*
X040354Y016533D02*
X040054Y016833D01*
X040204Y017333D02*
X040204Y017783D01*
X040354Y017783D02*
X040054Y017783D01*
X040514Y017633D02*
X040514Y017333D01*
X040514Y017558D02*
X040815Y017558D01*
X040815Y017633D02*
X040664Y017783D01*
X040514Y017633D01*
X040815Y017633D02*
X040815Y017333D01*
X040975Y017333D02*
X041275Y017333D01*
X041275Y017783D01*
X041200Y016833D02*
X041275Y016758D01*
X041200Y016833D02*
X041050Y016833D01*
X040975Y016758D01*
X040815Y016833D02*
X040815Y016383D01*
D14*
X037450Y009608D02*
X037450Y002858D01*
D15*
X017768Y006490D02*
X017323Y006444D01*
X017294Y006344D01*
X017254Y006247D01*
X017203Y006156D01*
X017486Y005809D01*
X017248Y005572D01*
X016902Y005854D01*
X016834Y005815D01*
X016763Y005782D01*
X016565Y006260D01*
X016629Y006293D01*
X016687Y006337D01*
X016737Y006389D01*
X016777Y006449D01*
X016806Y006515D01*
X016825Y006585D01*
X016831Y006658D01*
X016823Y006738D01*
X016801Y006816D01*
X016764Y006888D01*
X016715Y006952D01*
X016654Y007005D01*
X016585Y007046D01*
X016509Y007074D01*
X016429Y007087D01*
X016349Y007085D01*
X016270Y007068D01*
X016195Y007037D01*
X016128Y006992D01*
X016071Y006935D01*
X016025Y006869D01*
X015992Y006795D01*
X015973Y006716D01*
X015970Y006636D01*
X015982Y006556D01*
X016008Y006479D01*
X016048Y006409D01*
X016101Y006348D01*
X016164Y006298D01*
X016235Y006260D01*
X016037Y005782D01*
X015966Y005815D01*
X015898Y005854D01*
X015552Y005572D01*
X015314Y005809D01*
X015597Y006156D01*
X015546Y006247D01*
X015506Y006344D01*
X015477Y006444D01*
X015032Y006490D01*
X015032Y006826D01*
X015477Y006871D01*
X015506Y006971D01*
X015546Y007068D01*
X015597Y007160D01*
X015314Y007506D01*
X015552Y007743D01*
X015898Y007461D01*
X015990Y007511D01*
X016086Y007552D01*
X016187Y007581D01*
X016232Y008025D01*
X016568Y008025D01*
X016613Y007581D01*
X016714Y007552D01*
X016810Y007511D01*
X016902Y007461D01*
X017248Y007743D01*
X017486Y007506D01*
X017203Y007160D01*
X017254Y007068D01*
X017294Y006971D01*
X017323Y006871D01*
X017768Y006826D01*
X017768Y006490D01*
X017768Y006496D02*
X016798Y006496D01*
X016816Y006554D02*
X017768Y006554D01*
X017768Y006611D02*
X016827Y006611D01*
X016830Y006669D02*
X017768Y006669D01*
X017768Y006726D02*
X016824Y006726D01*
X016810Y006784D02*
X017768Y006784D01*
X017610Y006842D02*
X016787Y006842D01*
X016755Y006899D02*
X017315Y006899D01*
X017298Y006957D02*
X016709Y006957D01*
X016639Y007014D02*
X017276Y007014D01*
X017252Y007072D02*
X016516Y007072D01*
X016287Y007072D02*
X015548Y007072D01*
X015524Y007014D02*
X016162Y007014D01*
X016093Y006957D02*
X015502Y006957D01*
X015485Y006899D02*
X016046Y006899D01*
X016013Y006842D02*
X015190Y006842D01*
X015032Y006784D02*
X015989Y006784D01*
X015976Y006726D02*
X015032Y006726D01*
X015032Y006669D02*
X015971Y006669D01*
X015973Y006611D02*
X015032Y006611D01*
X015032Y006554D02*
X015982Y006554D01*
X016002Y006496D02*
X015032Y006496D01*
X015479Y006439D02*
X016031Y006439D01*
X016072Y006381D02*
X015495Y006381D01*
X015515Y006324D02*
X016131Y006324D01*
X016223Y006266D02*
X015538Y006266D01*
X015567Y006208D02*
X016214Y006208D01*
X016190Y006151D02*
X015593Y006151D01*
X015546Y006093D02*
X016166Y006093D01*
X016142Y006036D02*
X015499Y006036D01*
X015452Y005978D02*
X016119Y005978D01*
X016095Y005921D02*
X015405Y005921D01*
X015358Y005863D02*
X016071Y005863D01*
X016047Y005806D02*
X015987Y005806D01*
X015838Y005806D02*
X015318Y005806D01*
X015375Y005748D02*
X015768Y005748D01*
X015697Y005690D02*
X015433Y005690D01*
X015491Y005633D02*
X015627Y005633D01*
X015556Y005575D02*
X015548Y005575D01*
X016658Y006036D02*
X017301Y006036D01*
X017254Y006093D02*
X016634Y006093D01*
X016610Y006151D02*
X017207Y006151D01*
X017233Y006208D02*
X016586Y006208D01*
X016577Y006266D02*
X017262Y006266D01*
X017285Y006324D02*
X016670Y006324D01*
X016729Y006381D02*
X017305Y006381D01*
X017321Y006439D02*
X016770Y006439D01*
X016681Y005978D02*
X017348Y005978D01*
X017395Y005921D02*
X016705Y005921D01*
X016729Y005863D02*
X017442Y005863D01*
X017482Y005806D02*
X016962Y005806D01*
X017032Y005748D02*
X017425Y005748D01*
X017367Y005690D02*
X017103Y005690D01*
X017173Y005633D02*
X017309Y005633D01*
X017252Y005575D02*
X017244Y005575D01*
X016813Y005806D02*
X016753Y005806D01*
X017220Y007129D02*
X015580Y007129D01*
X015574Y007187D02*
X017226Y007187D01*
X017273Y007244D02*
X015527Y007244D01*
X015480Y007302D02*
X017320Y007302D01*
X017366Y007360D02*
X015434Y007360D01*
X015387Y007417D02*
X017413Y007417D01*
X017460Y007475D02*
X016919Y007475D01*
X016877Y007475D02*
X015923Y007475D01*
X015881Y007475D02*
X015340Y007475D01*
X015340Y007532D02*
X015811Y007532D01*
X015740Y007590D02*
X015398Y007590D01*
X015456Y007647D02*
X015669Y007647D01*
X015599Y007705D02*
X015513Y007705D01*
X016040Y007532D02*
X016760Y007532D01*
X016612Y007590D02*
X016188Y007590D01*
X016194Y007647D02*
X016606Y007647D01*
X016600Y007705D02*
X016200Y007705D01*
X016205Y007762D02*
X016595Y007762D01*
X016589Y007820D02*
X016211Y007820D01*
X016217Y007878D02*
X016583Y007878D01*
X016577Y007935D02*
X016223Y007935D01*
X016229Y007993D02*
X016571Y007993D01*
X017201Y007705D02*
X017287Y007705D01*
X017344Y007647D02*
X017131Y007647D01*
X017060Y007590D02*
X017402Y007590D01*
X017460Y007532D02*
X016989Y007532D01*
D16*
X013300Y006483D03*
X010925Y006483D03*
X008550Y006483D03*
X006175Y006483D03*
X003800Y006483D03*
X001425Y006483D03*
X001425Y008858D03*
X003800Y008858D03*
X006175Y008858D03*
X008550Y008858D03*
X010925Y008858D03*
X013300Y008858D03*
X013300Y011208D03*
X015050Y011508D03*
X013300Y013633D03*
X010925Y013633D03*
X008550Y013633D03*
X006175Y013608D03*
X003800Y013608D03*
X001425Y013608D03*
X001425Y011208D03*
X003800Y011208D03*
X006175Y011208D03*
X008550Y011208D03*
X010925Y011208D03*
X019400Y011058D03*
X019225Y014808D03*
X013300Y015933D03*
X010925Y015933D03*
X008550Y015933D03*
X006175Y016483D03*
X003800Y016483D03*
X001425Y016483D03*
X001425Y018358D03*
X003800Y018358D03*
X006175Y018358D03*
X008550Y018358D03*
X010925Y018358D03*
X013300Y018358D03*
X019075Y019483D03*
X026900Y019483D03*
X034825Y019483D03*
X034850Y014733D03*
X034875Y011058D03*
X026900Y011058D03*
X026925Y014708D03*
X026900Y004483D03*
X019100Y004458D03*
X034850Y004483D03*
M02*
