%
M48
M72
T01C0.0236
T02C0.0276
T03C0.0320
T04C0.0400
T05C0.0520
T06C0.1299
%
T01
X700Y3808
X1200Y7158
X2200Y7158
X3500Y7158
X4400Y7158
X7350Y6458
X9750Y6508
X9500Y9208
X4700Y9458
X3500Y9458
X2300Y9458
X1200Y9458
X2450Y11458
X2450Y13958
X10750Y14258
X12300Y14258
X15150Y13158
X15600Y13158
X15900Y13508
X17400Y14508
X15250Y14633
X17250Y16908
X16800Y18308
X15350Y18358
X14600Y18358
X18250Y20358
X21050Y18208
X24650Y20108
X25400Y18808
X26750Y18208
X25050Y17408
X27200Y17058
X26750Y16408
X26750Y15808
X25150Y15808
X28500Y14208
X28850Y15558
X24300Y13408
X21100Y14808
X21100Y15608
X28850Y18208
X33150Y18808
X34700Y18158
X36850Y18208
X35010Y16817
X34650Y15608
X35400Y12558
X33600Y11758
X32750Y10758
X33650Y10258
X34750Y9158
X33500Y8508
X36750Y7858
X32750Y5758
X28700Y4208
X27050Y5508
X26800Y6008
X24250Y5058
X20950Y4608
X18900Y5508
X19250Y6008
X21050Y7908
X25450Y8508
X27700Y7858
X28150Y9408
X23600Y10858
X22300Y10858
X16150Y9908
X14450Y9108
X16150Y8758
X550Y18758
X36750Y3958
X40400Y10158
X39550Y10608
X41150Y12158
X39950Y20808
T02
X34225Y2008
X33225Y2008
T03
X34650Y3558
X35650Y3558
X27700Y3558
X26700Y3558
X19900Y3533
X18900Y3533
X14100Y5558
X13100Y5558
X11725Y5558
X10725Y5558
X9350Y5558
X8350Y5558
X6975Y5558
X5975Y5558
X4600Y5533
X3600Y5533
X2225Y5533
X1225Y5533
X1225Y7908
X2225Y7908
X3600Y7908
X4600Y7908
X5975Y7908
X6975Y7908
X8350Y7908
X9350Y7908
X10725Y7908
X11725Y7908
X13100Y7908
X14100Y7908
X14100Y10283
X13100Y10283
X11725Y10283
X10725Y10283
X9350Y10283
X8350Y10283
X6975Y10283
X5975Y10283
X4600Y10283
X3600Y10283
X2225Y10283
X1225Y10283
X1225Y12658
X2225Y12658
X3600Y12658
X4600Y12658
X5975Y12658
X6975Y12658
X8350Y12658
X9350Y12658
X10725Y12658
X11725Y12658
X13100Y12658
X14100Y12658
X16200Y11508
X17200Y11508
X18900Y10108
X19900Y10108
X26700Y10108
X27700Y10108
X34650Y10108
X35650Y10108
X35650Y13833
X34650Y13833
X27700Y13833
X26700Y13833
X19900Y13833
X18900Y13833
X14100Y15033
X13100Y15033
X11725Y15033
X10725Y15033
X9350Y15033
X8350Y15033
X6975Y15033
X5975Y15033
X4600Y15033
X3600Y15033
X2225Y15033
X1225Y15033
X1225Y17408
X2225Y17408
X3600Y17408
X4600Y17408
X5975Y17408
X6975Y17408
X8350Y17408
X9350Y17408
X10725Y17408
X11725Y17408
X13100Y17408
X14100Y17408
X18900Y20433
X19900Y20433
X26700Y20483
X27700Y20483
X34650Y20483
X35650Y20483
T04
X38025Y19558
X39125Y19558
X39125Y18558
X38025Y18558
X38025Y17558
X39125Y17558
X39125Y16558
X38025Y16558
X38025Y15558
X39125Y15558
X39125Y14558
X38025Y14558
X38025Y13558
X39125Y13558
X41900Y13558
X43000Y13558
X43000Y14558
X41900Y14558
X41900Y15558
X43000Y15558
X43000Y16558
X41900Y16558
X41900Y17558
X43000Y17558
X33350Y14058
X33350Y13058
X31250Y13558
X30150Y13558
X30150Y14558
X31250Y14558
X31250Y15558
X30150Y15558
X30150Y16558
X31250Y16558
X31250Y17558
X30150Y17558
X30150Y18558
X31250Y18558
X31250Y19558
X30150Y19558
X23500Y19558
X22400Y19558
X22400Y18558
X23500Y18558
X23500Y17558
X22400Y17558
X22400Y16558
X23500Y16558
X23500Y15558
X22400Y15558
X22400Y14558
X23500Y14558
X23500Y13558
X22400Y13558
X22400Y9258
X23500Y9258
X23500Y8258
X22400Y8258
X22400Y7258
X23500Y7258
X23500Y6258
X22400Y6258
X22400Y5258
X23500Y5258
X23500Y4258
X22400Y4258
X22400Y3258
X23500Y3258
X30150Y3258
X31250Y3258
X31250Y4258
X30150Y4258
X30150Y5258
X31250Y5258
X31250Y6258
X30150Y6258
X30150Y7258
X31250Y7258
X31250Y8258
X30150Y8258
X30150Y9258
X31250Y9258
X38025Y9233
X39125Y9233
X39125Y8233
X38025Y8233
X38025Y7233
X39125Y7233
X39125Y6233
X38025Y6233
X38025Y5233
X39125Y5233
X39125Y4233
X38025Y4233
X38025Y3233
X39125Y3233
X41900Y5233
X43000Y5233
X43000Y6233
X41900Y6233
X41900Y7233
X43000Y7233
X43000Y8233
X41900Y8233
X41900Y9233
X43000Y9233
T05
X36150Y11408
X16850Y15858
T06
X15650Y21333
X42400Y21333
X42400Y1758
X15650Y1758
M30
