G75*
%MOIN*%
%OFA0B0*%
%FSLAX24Y24*%
%IPPOS*%
%LPD*%
%AMOC8*
5,1,8,0,0,1.08239X$1,22.5*
%
%ADD10C,0.0000*%
D10*
X000650Y003208D02*
X013450Y003208D01*
X013494Y003206D01*
X013537Y003200D01*
X013579Y003191D01*
X013621Y003178D01*
X013661Y003161D01*
X013700Y003141D01*
X013737Y003118D01*
X013771Y003091D01*
X013804Y003062D01*
X013833Y003029D01*
X013860Y002995D01*
X013883Y002958D01*
X013903Y002919D01*
X013920Y002879D01*
X013933Y002837D01*
X013942Y002795D01*
X013948Y002752D01*
X013950Y002708D01*
X013950Y000608D01*
X013952Y000564D01*
X013958Y000521D01*
X013967Y000479D01*
X013980Y000437D01*
X013997Y000397D01*
X014017Y000358D01*
X014040Y000321D01*
X014067Y000287D01*
X014096Y000254D01*
X014129Y000225D01*
X014163Y000198D01*
X014200Y000175D01*
X014239Y000155D01*
X014279Y000138D01*
X014321Y000125D01*
X014363Y000116D01*
X014406Y000110D01*
X014450Y000108D01*
X043950Y000108D01*
X043994Y000110D01*
X044037Y000116D01*
X044079Y000125D01*
X044121Y000138D01*
X044161Y000155D01*
X044200Y000175D01*
X044237Y000198D01*
X044271Y000225D01*
X044304Y000254D01*
X044333Y000287D01*
X044360Y000321D01*
X044383Y000358D01*
X044403Y000397D01*
X044420Y000437D01*
X044433Y000479D01*
X044442Y000521D01*
X044448Y000564D01*
X044450Y000608D01*
X044450Y022483D01*
X044448Y022527D01*
X044442Y022570D01*
X044433Y022612D01*
X044420Y022654D01*
X044403Y022694D01*
X044383Y022733D01*
X044360Y022770D01*
X044333Y022804D01*
X044304Y022837D01*
X044271Y022866D01*
X044237Y022893D01*
X044200Y022916D01*
X044161Y022936D01*
X044121Y022953D01*
X044079Y022966D01*
X044037Y022975D01*
X043994Y022981D01*
X043950Y022983D01*
X014450Y022983D01*
X014406Y022981D01*
X014363Y022975D01*
X014321Y022966D01*
X014279Y022953D01*
X014239Y022936D01*
X014200Y022916D01*
X014163Y022893D01*
X014129Y022866D01*
X014096Y022837D01*
X014067Y022804D01*
X014040Y022770D01*
X014017Y022733D01*
X013997Y022694D01*
X013980Y022654D01*
X013967Y022612D01*
X013958Y022570D01*
X013952Y022527D01*
X013950Y022483D01*
X013950Y020253D01*
X013948Y020209D01*
X013942Y020166D01*
X013933Y020124D01*
X013920Y020082D01*
X013903Y020042D01*
X013883Y020003D01*
X013860Y019966D01*
X013833Y019932D01*
X013804Y019899D01*
X013771Y019870D01*
X013737Y019843D01*
X013700Y019820D01*
X013661Y019800D01*
X013621Y019783D01*
X013579Y019770D01*
X013537Y019761D01*
X013494Y019755D01*
X013450Y019753D01*
X000650Y019753D01*
X000606Y019751D01*
X000563Y019745D01*
X000521Y019736D01*
X000479Y019723D01*
X000439Y019706D01*
X000400Y019686D01*
X000363Y019663D01*
X000329Y019636D01*
X000296Y019607D01*
X000267Y019574D01*
X000240Y019540D01*
X000217Y019503D01*
X000197Y019464D01*
X000180Y019424D01*
X000167Y019382D01*
X000158Y019340D01*
X000152Y019297D01*
X000150Y019253D01*
X000150Y003708D01*
X000152Y003664D01*
X000158Y003621D01*
X000167Y003579D01*
X000180Y003537D01*
X000197Y003497D01*
X000217Y003458D01*
X000240Y003421D01*
X000267Y003387D01*
X000296Y003354D01*
X000329Y003325D01*
X000363Y003298D01*
X000400Y003275D01*
X000439Y003255D01*
X000479Y003238D01*
X000521Y003225D01*
X000563Y003216D01*
X000606Y003210D01*
X000650Y003208D01*
M02*
